<svg width="21" height="21" viewBox="0 0 21 21" fill="none" xmlns="http://www.w3.org/2000/svg">
<path d="M17.624 2.49512H15.624V1.49512C15.624 1.2299 15.5187 0.975547 15.3311 0.78801C15.1436 0.600474 14.8892 0.495117 14.624 0.495117C14.3588 0.495117 14.1045 0.600474 13.9169 0.78801C13.7294 0.975547 13.624 1.2299 13.624 1.49512V2.49512H7.62402V1.49512C7.62402 1.2299 7.51867 0.975547 7.33113 0.78801C7.14359 0.600474 6.88924 0.495117 6.62402 0.495117C6.35881 0.495117 6.10445 0.600474 5.91692 0.78801C5.72938 0.975547 5.62402 1.2299 5.62402 1.49512V2.49512H3.62402C2.82837 2.49512 2.06531 2.81119 1.5027 3.3738C0.940094 3.93641 0.624023 4.69947 0.624023 5.49512V17.4951C0.624023 18.2908 0.940094 19.0538 1.5027 19.6164C2.06531 20.179 2.82837 20.4951 3.62402 20.4951H17.624C18.4197 20.4951 19.1827 20.179 19.7453 19.6164C20.308 19.0538 20.624 18.2908 20.624 17.4951V5.49512C20.624 4.69947 20.308 3.93641 19.7453 3.3738C19.1827 2.81119 18.4197 2.49512 17.624 2.49512ZM18.624 17.4951C18.624 17.7603 18.5187 18.0147 18.3311 18.2022C18.1436 18.3898 17.8892 18.4951 17.624 18.4951H3.62402C3.35881 18.4951 3.10445 18.3898 2.91692 18.2022C2.72938 18.0147 2.62402 17.7603 2.62402 17.4951V10.4951H18.624V17.4951ZM18.624 8.49512H2.62402V5.49512C2.62402 5.2299 2.72938 4.97555 2.91692 4.78801C3.10445 4.60047 3.35881 4.49512 3.62402 4.49512H5.62402V5.49512C5.62402 5.76033 5.72938 6.01469 5.91692 6.20222C6.10445 6.38976 6.35881 6.49512 6.62402 6.49512C6.88924 6.49512 7.14359 6.38976 7.33113 6.20222C7.51867 6.01469 7.62402 5.76033 7.62402 5.49512V4.49512H13.624V5.49512C13.624 5.76033 13.7294 6.01469 13.9169 6.20222C14.1045 6.38976 14.3588 6.49512 14.624 6.49512C14.8892 6.49512 15.1436 6.38976 15.3311 6.20222C15.5187 6.01469 15.624 5.76033 15.624 5.49512V4.49512H17.624C17.8892 4.49512 18.1436 4.60047 18.3311 4.78801C18.5187 4.97555 18.624 5.2299 18.624 5.49512V8.49512Z" fill="#999999"/>
</svg>
