<svg width="25" height="25" viewBox="0 0 25 25" fill="none" xmlns="http://www.w3.org/2000/svg">
<path d="M16.3876 4.69922C16.9447 4.69924 17.4907 4.85435 17.9646 5.14719C18.4384 5.44002 18.8214 5.85901 19.0706 6.35722L20.4536 9.12222C20.6976 9.02222 20.9406 8.92122 21.1766 8.80422C21.414 8.68567 21.6887 8.66627 21.9404 8.75028C22.1921 8.8343 22.4001 9.01485 22.5186 9.25222C22.6372 9.48959 22.6566 9.76433 22.5725 10.016C22.4885 10.2677 22.308 10.4757 22.0706 10.5942C21.5766 10.8402 21.3506 10.9162 21.3506 10.9162L22.3066 12.8292C22.5156 13.2462 22.6236 13.7052 22.6236 14.1712V16.6992C22.6236 17.1213 22.5345 17.5386 22.3622 17.9239C22.1899 18.3092 21.9382 18.6538 21.6236 18.9352V20.1992C21.6236 20.597 21.4656 20.9786 21.1843 21.2599C20.903 21.5412 20.5214 21.6992 20.1236 21.6992C19.7258 21.6992 19.3443 21.5412 19.0629 21.2599C18.7816 20.9786 18.6236 20.597 18.6236 20.1992V19.6992H6.62361V20.1992C6.62361 20.597 6.46557 20.9786 6.18427 21.2599C5.90296 21.5412 5.52143 21.6992 5.12361 21.6992C4.72578 21.6992 4.34425 21.5412 4.06295 21.2599C3.78164 20.9786 3.62361 20.597 3.62361 20.1992V18.9352C3.00961 18.3852 2.62361 17.5872 2.62361 16.6992V14.1712C2.6238 13.7057 2.73232 13.2466 2.94061 12.8302L3.89661 10.9162C3.65432 10.816 3.41489 10.7089 3.17861 10.5952C3.06074 10.5367 2.95557 10.4556 2.86912 10.3564C2.78268 10.2572 2.71666 10.1419 2.67486 10.0171C2.63305 9.89236 2.61628 9.76057 2.62551 9.62931C2.63473 9.49806 2.66977 9.36991 2.72861 9.25222C2.84958 9.0159 3.05874 8.83671 3.31083 8.75343C3.56292 8.67015 3.83766 8.68947 4.07561 8.80722C4.31161 8.92055 4.55094 9.02555 4.79361 9.12222L6.17661 6.35722C6.4258 5.85901 6.80877 5.44002 7.28264 5.14719C7.75651 4.85435 8.30256 4.69924 8.85961 4.69922H16.3876ZM19.4576 11.6032C17.7576 12.1402 15.3386 12.6992 12.6236 12.6992C9.90861 12.6992 7.48961 12.1392 5.78961 11.6032L4.72961 13.7232C4.65991 13.8623 4.62362 14.0157 4.62361 14.1712V16.6992C4.62361 16.9644 4.72897 17.2188 4.9165 17.4063C5.10404 17.5939 5.35839 17.6992 5.62361 17.6992H19.6236C19.8888 17.6992 20.1432 17.5939 20.3307 17.4063C20.5183 17.2188 20.6236 16.9644 20.6236 16.6992V14.1712C20.6234 14.016 20.5872 13.863 20.5176 13.7242L19.4576 11.6032ZM8.12361 13.6992C8.52143 13.6992 8.90296 13.8573 9.18427 14.1386C9.46557 14.4199 9.62361 14.8014 9.62361 15.1992C9.62361 15.597 9.46557 15.9786 9.18427 16.2599C8.90296 16.5412 8.52143 16.6992 8.12361 16.6992C7.72578 16.6992 7.34425 16.5412 7.06295 16.2599C6.78164 15.9786 6.62361 15.597 6.62361 15.1992C6.62361 14.8014 6.78164 14.4199 7.06295 14.1386C7.34425 13.8573 7.72578 13.6992 8.12361 13.6992ZM17.1236 13.6992C17.5214 13.6992 17.903 13.8573 18.1843 14.1386C18.4656 14.4199 18.6236 14.8014 18.6236 15.1992C18.6236 15.597 18.4656 15.9786 18.1843 16.2599C17.903 16.5412 17.5214 16.6992 17.1236 16.6992C16.7258 16.6992 16.3443 16.5412 16.0629 16.2599C15.7816 15.9786 15.6236 15.597 15.6236 15.1992C15.6236 14.8014 15.7816 14.4199 16.0629 14.1386C16.3443 13.8573 16.7258 13.6992 17.1236 13.6992ZM16.3876 6.69922H8.85961C8.67395 6.69932 8.49198 6.7511 8.33408 6.84877C8.17619 6.94644 8.0486 7.08614 7.96561 7.25222L6.69561 9.78922C8.24361 10.2542 10.3296 10.6992 12.6236 10.6992C14.9176 10.6992 17.0036 10.2542 18.5506 9.78922L17.2816 7.25222C17.1986 7.08614 17.071 6.94644 16.9131 6.84877C16.7552 6.7511 16.5733 6.69932 16.3876 6.69922Z" fill="#999999"/>
</svg>
