<svg width="25" height="25" viewBox="0 0 25 25" fill="none" xmlns="http://www.w3.org/2000/svg">
<path d="M12.624 15.0972C12.9074 15.0972 13.145 15.0012 13.337 14.8092C13.529 14.6172 13.6247 14.3798 13.624 14.0972C13.6234 13.8145 13.5274 13.5772 13.336 13.3852C13.1447 13.1932 12.9074 13.0972 12.624 13.0972C12.3407 13.0972 12.1034 13.1932 11.912 13.3852C11.7207 13.5772 11.6247 13.8145 11.624 14.0972C11.6234 14.3798 11.7194 14.6175 11.912 14.8102C12.1047 15.0028 12.342 15.0985 12.624 15.0972ZM12.624 11.0972C12.9074 11.0972 13.145 11.0012 13.337 10.8092C13.529 10.6172 13.6247 10.3798 13.624 10.0972V6.09717C13.624 5.81383 13.528 5.5765 13.336 5.38517C13.144 5.19383 12.9067 5.09783 12.624 5.09717C12.3414 5.0965 12.104 5.1925 11.912 5.38517C11.72 5.57783 11.624 5.81517 11.624 6.09717V10.0972C11.624 10.3805 11.72 10.6182 11.912 10.8102C12.104 11.0022 12.3414 11.0978 12.624 11.0972ZM6.62402 18.0972L4.32403 20.3972C4.00736 20.7138 3.64469 20.7848 3.23603 20.6102C2.82736 20.4355 2.62336 20.1228 2.62403 19.6722V4.09717C2.62403 3.54717 2.82003 3.0765 3.21203 2.68517C3.60403 2.29383 4.07469 2.09783 4.62403 2.09717H20.624C21.174 2.09717 21.645 2.29317 22.037 2.68517C22.429 3.07717 22.6247 3.54783 22.624 4.09717V16.0972C22.624 16.6472 22.4284 17.1182 22.037 17.5102C21.6457 17.9022 21.1747 18.0978 20.624 18.0972H6.62402ZM5.77403 16.0972H20.624V4.09717H4.62403V17.2222L5.77403 16.0972Z" fill="#999999"/>
</svg>
