<svg width="21" height="22" viewBox="0 0 21 22" fill="none" xmlns="http://www.w3.org/2000/svg">
<g clip-path="url(#clip0_2445_397)">
<path d="M7.31518 1.19069C5.21695 1.91859 3.40745 3.30015 2.15245 5.13246C0.897445 6.96477 0.263103 9.15124 0.342592 11.3707C0.422082 13.5902 1.21121 15.7257 2.59408 17.4635C3.97694 19.2013 5.88065 20.4499 8.02557 21.0258C9.76451 21.4746 11.5864 21.4943 13.3346 21.0833C14.9184 20.7275 16.3826 19.9666 17.5839 18.875C18.8341 17.7042 19.7417 16.2147 20.2089 14.5667C20.7167 12.7746 20.807 10.89 20.473 9.05749H10.708V13.1082H16.3632C16.2502 13.7543 16.008 14.3709 15.6511 14.9211C15.2942 15.4714 14.83 15.944 14.2862 16.3107C13.5956 16.7675 12.8172 17.0749 12.0008 17.213C11.182 17.3653 10.3422 17.3653 9.52346 17.213C8.69361 17.0415 7.90859 16.699 7.21838 16.2073C6.10956 15.4224 5.27699 14.3074 4.83948 13.0212C4.39456 11.711 4.39456 10.2906 4.83948 8.98038C5.15091 8.06198 5.66575 7.22579 6.34557 6.53421C7.12354 5.72825 8.10847 5.15214 9.19231 4.8691C10.2761 4.58606 11.417 4.60702 12.4897 4.92968C13.3277 5.18691 14.094 5.63636 14.7275 6.24218C15.3652 5.6078 16.0017 4.97179 16.6372 4.33413C16.9653 3.99124 17.323 3.66475 17.6462 3.31366C16.6792 2.41374 15.544 1.71349 14.3059 1.25304C12.0512 0.434348 9.58413 0.412346 7.31518 1.19069Z" fill="white"/>
<path d="M7.31586 1.1907C9.58462 0.411821 12.0517 0.433243 14.3066 1.2514C15.5449 1.71498 16.6795 2.4186 17.6452 3.32187C17.3171 3.67296 16.9709 4.00109 16.6362 4.34234C15.9997 4.97781 15.3637 5.61109 14.7282 6.24218C14.0947 5.63636 13.3284 5.18692 12.4904 4.92968C11.418 4.60589 10.2772 4.58372 9.19309 4.8656C8.10897 5.14749 7.12343 5.72253 6.34461 6.52765C5.66479 7.21923 5.14995 8.05543 4.83852 8.97382L1.4375 6.34062C2.65486 3.92654 4.76264 2.07995 7.31586 1.1907Z" fill="#E33629"/>
<path d="M0.535464 8.94923C0.718265 8.04327 1.02175 7.16591 1.43781 6.34064L4.83882 8.9804C4.39391 10.2906 4.39391 11.711 4.83882 13.0213C3.7057 13.8963 2.57203 14.7756 1.43781 15.6594C0.396258 13.5862 0.0786036 11.224 0.535464 8.94923Z" fill="#F8BD00"/>
<path d="M10.7078 9.05585H20.4728C20.8068 10.8883 20.7164 12.773 20.2086 14.5651C19.7414 16.213 18.8339 17.7025 17.5836 18.8733C16.486 18.0169 15.3835 17.1671 14.286 16.3107C14.8301 15.9436 15.2946 15.4705 15.6515 14.9197C16.0084 14.3688 16.2504 13.7516 16.363 13.1049H10.7078C10.7061 11.7563 10.7078 10.4061 10.7078 9.05585Z" fill="#587DBD"/>
<path d="M1.43555 15.6594C2.56977 14.7844 3.70344 13.905 4.83656 13.0212C5.27495 14.3078 6.10871 15.4229 7.21875 16.2073C7.91111 16.6967 8.69782 17.0364 9.52875 17.2048C10.3475 17.3571 11.1873 17.3571 12.0061 17.2048C12.8225 17.0666 13.6009 16.7593 14.2915 16.3025C15.3891 17.1589 16.4916 18.0087 17.5891 18.8651C16.388 19.9574 14.9238 20.7189 13.3399 21.0751C11.5917 21.4861 9.7698 21.4664 8.03086 21.0176C6.65553 20.6504 5.37087 20.0031 4.25742 19.1162C3.0789 18.1805 2.11633 17.0014 1.43555 15.6594Z" fill="#319F43"/>
</g>
<defs>
<clipPath id="clip0_2445_397">
<rect width="21" height="21" fill="white" transform="translate(0 0.5)"/>
</clipPath>
</defs>
</svg>
