<svg width="25" height="25" viewBox="0 0 25 25" fill="none" xmlns="http://www.w3.org/2000/svg">
<path d="M9.87402 4.84726V16.6473M15.374 7.54726V19.3473M9.12002 4.53626L4.87102 7.00726C4.71986 7.09524 4.59441 7.22132 4.5072 7.37293C4.42 7.52454 4.37407 7.69636 4.37402 7.87126V18.3573C4.3739 18.5332 4.42017 18.706 4.50816 18.8583C4.59616 19.0106 4.72277 19.137 4.87522 19.2247C5.02766 19.3124 5.20056 19.3584 5.37645 19.358C5.55234 19.3575 5.725 19.3107 5.87702 19.2223L9.12002 17.3353C9.349 17.2021 9.60915 17.132 9.87402 17.132C10.1389 17.132 10.399 17.2021 10.628 17.3353L14.62 19.6573C14.849 19.7904 15.1092 19.8605 15.374 19.8605C15.6389 19.8605 15.899 19.7904 16.128 19.6573L20.377 17.1853C20.5282 17.0973 20.6536 16.9712 20.7408 16.8196C20.8281 16.668 20.874 16.4962 20.874 16.3213V5.83626C20.8741 5.66037 20.8279 5.48756 20.7399 5.33526C20.6519 5.18297 20.5253 5.05657 20.3728 4.96884C20.2204 4.8811 20.0475 4.83513 19.8716 4.83555C19.6957 4.83598 19.523 4.88279 19.371 4.97126L16.128 6.85826C15.899 6.99141 15.6389 7.06154 15.374 7.06154C15.1092 7.06154 14.849 6.99141 14.62 6.85826L10.628 4.53726C10.399 4.40412 10.1389 4.33398 9.87402 4.33398C9.60915 4.33398 9.349 4.40312 9.12002 4.53626Z" stroke="#999999" stroke-width="1.5" stroke-linejoin="round"/>
</svg>
