<svg width="25" height="25" viewBox="0 0 25 25" fill="none" xmlns="http://www.w3.org/2000/svg">
<path fill-rule="evenodd" clip-rule="evenodd" d="M20.424 10.8792C20.114 7.69923 18.234 2.69922 12.4241 2.69922C6.61405 2.69922 4.73403 7.69923 4.42405 10.8792C3.33655 11.292 2.61922 12.3361 2.62405 13.4992V14.8992C2.62405 16.4456 3.87767 17.6992 5.42403 17.6992C6.97044 17.6992 8.22406 16.4456 8.22406 14.8992V13.4992C8.219 12.3611 7.52806 11.3385 6.47403 10.9092C6.67405 9.0692 7.65406 4.69923 12.4241 4.69923C17.1941 4.69923 18.164 9.0692 18.3641 10.9092C17.3122 11.3395 16.6247 12.3628 16.6241 13.4992V14.8992C16.6262 15.4261 16.7764 15.9417 17.0576 16.3873C17.3387 16.8329 17.7395 17.1905 18.2141 17.4192C17.7941 18.2092 16.724 19.2792 14.094 19.5992C13.5683 18.8009 12.5512 18.4862 11.6665 18.8481C10.7818 19.21 10.2768 20.1474 10.4613 21.0852C10.6458 22.0231 11.4682 22.6992 12.4241 22.6992C12.7944 22.6972 13.157 22.5923 13.4712 22.3963C13.7855 22.2003 14.0392 21.9209 14.204 21.5892C18.494 21.0992 19.8641 18.8892 20.294 17.5892C21.4573 17.2124 22.2397 16.122 22.224 14.8992V13.4992C22.2289 12.3361 21.5115 11.292 20.424 10.8792ZM6.22405 14.8992C6.22405 15.341 5.86588 15.6992 5.42403 15.6992C4.98219 15.6992 4.62406 15.3411 4.62406 14.8992V13.4992C4.62326 13.3936 4.64335 13.289 4.68319 13.1912C4.72303 13.0934 4.78183 13.0045 4.8562 12.9296C4.93056 12.8546 5.01903 12.7952 5.11649 12.7546C5.21395 12.714 5.31848 12.6931 5.42406 12.6931C5.52963 12.6931 5.63416 12.714 5.73162 12.7546C5.82908 12.7952 5.91755 12.8546 5.99191 12.9296C6.06628 13.0045 6.12508 13.0934 6.16492 13.1912C6.20476 13.289 6.22486 13.3936 6.22405 13.4992V14.8992ZM18.624 13.4992C18.624 13.0574 18.9822 12.6992 19.424 12.6992C19.8659 12.6992 20.2241 13.0574 20.2241 13.4992V14.8992C20.2241 15.341 19.8659 15.6992 19.424 15.6992C18.9822 15.6992 18.624 15.3411 18.624 14.8992V13.4992Z" fill="#999999"/>
</svg>
