<svg width="17" height="18" viewBox="0 0 17 18" fill="none" xmlns="http://www.w3.org/2000/svg">
<path fill-rule="evenodd" clip-rule="evenodd" d="M6.87543 1C7.31043 1 7.73793 1.0435 8.14968 1.1275C8.34462 1.16708 8.51584 1.28248 8.62569 1.44831C8.73554 1.61414 8.77502 1.81682 8.73543 2.01175C8.69585 2.20668 8.58045 2.37791 8.41462 2.48776C8.24879 2.59761 8.04612 2.63708 7.85118 2.5975C6.90655 2.4048 5.92599 2.49651 5.03348 2.86104C4.14096 3.22557 3.37657 3.84655 2.83695 4.64547C2.29733 5.44439 2.0067 6.38538 2.00182 7.34945C1.99695 8.31353 2.27803 9.25741 2.80954 10.0617C3.34105 10.8661 4.09911 11.4948 4.98789 11.8683C5.87667 12.2419 6.85626 12.3435 7.80279 12.1604C8.74933 11.9772 9.62031 11.5176 10.3056 10.8395C10.9909 10.1614 11.4598 9.29529 11.6529 8.35075C11.6725 8.25423 11.711 8.16251 11.766 8.08084C11.821 7.99917 11.8916 7.92913 11.9737 7.87474C12.0559 7.82035 12.1479 7.78266 12.2446 7.76383C12.3412 7.745 12.4407 7.7454 12.5372 7.765C12.6337 7.7846 12.7254 7.82302 12.8071 7.87806C12.8888 7.93311 12.9588 8.0037 13.0132 8.08581C13.0676 8.16792 13.1053 8.25994 13.1241 8.35662C13.1429 8.45329 13.1425 8.55273 13.1229 8.64925C12.9403 9.54372 12.5676 10.3885 12.0302 11.1265L11.8824 11.3215L14.6214 14.0605C14.7574 14.1952 14.8367 14.3767 14.8432 14.5679C14.8497 14.7591 14.7828 14.9456 14.6563 15.0892C14.5298 15.2327 14.3532 15.3225 14.1627 15.3402C13.9722 15.3578 13.7821 15.3019 13.6314 15.184L13.5609 15.121L10.8219 12.382C10.0235 13.0112 9.08621 13.4404 8.0882 13.6337C7.09019 13.827 6.06043 13.7788 5.08482 13.4932C4.10921 13.2076 3.21605 12.6928 2.47986 11.9918C1.74367 11.2908 1.18579 10.4239 0.852768 9.46344C0.519746 8.50298 0.421239 7.47681 0.565465 6.47053C0.709692 5.46426 1.09247 4.50707 1.68186 3.67882C2.27125 2.85056 3.05017 2.17527 3.95363 1.70927C4.85708 1.24327 5.85888 1.00009 6.87543 1ZM13.2504 0.25C13.3907 0.25 13.5282 0.289358 13.6473 0.363603C13.7664 0.437848 13.8622 0.544002 13.9239 0.67L13.9599 0.75775L14.0574 1.04125C14.1603 1.34289 14.3261 1.61922 14.5439 1.85196C14.7616 2.08469 15.0263 2.26851 15.3204 2.39125L15.4592 2.44375L15.7427 2.5405C15.8831 2.5884 16.0061 2.67685 16.0962 2.79467C16.1864 2.9125 16.2395 3.0544 16.249 3.20243C16.2585 3.35047 16.2238 3.49799 16.1495 3.62634C16.0751 3.75469 15.9643 3.8581 15.8312 3.9235L15.7427 3.9595L15.4592 4.057C15.1575 4.1599 14.8812 4.32571 14.6485 4.54344C14.4157 4.76118 14.2319 5.02588 14.1092 5.32L14.0567 5.45875L13.9599 5.74225C13.912 5.8826 13.8234 6.00558 13.7056 6.09562C13.5877 6.18567 13.4458 6.23875 13.2977 6.24814C13.1497 6.25753 13.0022 6.22282 12.8739 6.14839C12.7456 6.07396 12.6423 5.96316 12.5769 5.83L12.5409 5.74225L12.4434 5.45875C12.3405 5.15711 12.1747 4.88078 11.957 4.64804C11.7393 4.41531 11.4746 4.23149 11.1804 4.10875L11.0417 4.05625L10.7582 3.9595C10.6178 3.9116 10.4948 3.82315 10.4046 3.70533C10.3145 3.5875 10.2614 3.4456 10.2519 3.29757C10.2424 3.14953 10.277 3.00201 10.3514 2.87366C10.4258 2.74531 10.5365 2.6419 10.6697 2.5765L10.7582 2.5405L11.0417 2.443C11.3433 2.3401 11.6197 2.17429 11.8524 1.95656C12.0851 1.73882 12.2689 1.47413 12.3917 1.18L12.4442 1.04125L12.5409 0.75775C12.5915 0.60969 12.687 0.481139 12.8143 0.390092C12.9415 0.299046 13.094 0.250062 13.2504 0.25ZM13.2504 2.647C13.073 2.87027 12.8707 3.07258 12.6474 3.25C12.8714 3.4275 13.0724 3.6285 13.2504 3.853C13.4279 3.629 13.6289 3.428 13.8534 3.25C13.6302 3.07258 13.4279 2.87027 13.2504 2.647Z" fill="white"/>
</svg>
